<mxfile host="app.diagrams.net" modified="2024-02-22T17:16:41.970Z" agent="Mozilla/5.0 (Windows NT 10.0; Win64; x64; rv:123.0) Gecko/20100101 Firefox/123.0" etag="_XJQo0DiXBdJnIAdSqV9" version="23.1.4" type="device">
  <diagram id="C5RBs43oDa-KdzZeNtuy" name="Page-1">
    <mxGraphModel dx="1195" dy="693" grid="1" gridSize="10" guides="1" tooltips="1" connect="1" arrows="1" fold="1" page="1" pageScale="1" pageWidth="827" pageHeight="1169" background="#ffffff" math="0" shadow="0">
      <root>
        <mxCell id="WIyWlLk6GJQsqaUBKTNV-0" />
        <mxCell id="WIyWlLk6GJQsqaUBKTNV-1" parent="WIyWlLk6GJQsqaUBKTNV-0" />
        <mxCell id="869ve5IsbD_s2CFl3atE-1" style="edgeStyle=none;curved=1;rounded=0;orthogonalLoop=1;jettySize=auto;html=1;exitX=0.5;exitY=1;exitDx=0;exitDy=0;entryX=0.5;entryY=0;entryDx=0;entryDy=0;fontSize=12;startSize=8;endSize=8;labelBackgroundColor=none;strokeColor=#788AA3;fontColor=default;" edge="1" parent="WIyWlLk6GJQsqaUBKTNV-1" source="WIyWlLk6GJQsqaUBKTNV-3" target="0kDS8UJOp55JMvb85pXF-15">
          <mxGeometry relative="1" as="geometry" />
        </mxCell>
        <mxCell id="WIyWlLk6GJQsqaUBKTNV-3" value="RobotState::INITIAL" style="rounded=1;whiteSpace=wrap;html=1;fontSize=12;glass=0;strokeWidth=1;shadow=0;labelBackgroundColor=none;fillColor=#B2C9AB;strokeColor=#788AA3;fontColor=#46495D;" parent="WIyWlLk6GJQsqaUBKTNV-1" vertex="1">
          <mxGeometry x="175" y="350" width="150" height="40" as="geometry" />
        </mxCell>
        <mxCell id="869ve5IsbD_s2CFl3atE-3" style="edgeStyle=none;curved=1;rounded=0;orthogonalLoop=1;jettySize=auto;html=1;exitX=0.5;exitY=1;exitDx=0;exitDy=0;entryX=0.5;entryY=0;entryDx=0;entryDy=0;strokeColor=#788AA3;fontSize=12;fontColor=default;startSize=8;endSize=8;fillColor=#B2C9AB;labelBackgroundColor=none;" edge="1" parent="WIyWlLk6GJQsqaUBKTNV-1" source="0kDS8UJOp55JMvb85pXF-15" target="869ve5IsbD_s2CFl3atE-2">
          <mxGeometry relative="1" as="geometry" />
        </mxCell>
        <mxCell id="0kDS8UJOp55JMvb85pXF-15" value="Enable h-bridge" style="shape=process;whiteSpace=wrap;html=1;backgroundOutline=1;labelBackgroundColor=none;fillColor=#B2C9AB;strokeColor=#788AA3;fontColor=#46495D;" parent="WIyWlLk6GJQsqaUBKTNV-1" vertex="1">
          <mxGeometry x="190.5" y="420" width="120" height="40" as="geometry" />
        </mxCell>
        <mxCell id="0kDS8UJOp55JMvb85pXF-55" style="edgeStyle=orthogonalEdgeStyle;rounded=0;orthogonalLoop=1;jettySize=auto;html=1;exitX=0.5;exitY=1;exitDx=0;exitDy=0;exitPerimeter=0;entryX=0.5;entryY=0;entryDx=0;entryDy=0;labelBackgroundColor=none;strokeColor=#788AA3;fontColor=default;" parent="WIyWlLk6GJQsqaUBKTNV-1" source="0kDS8UJOp55JMvb85pXF-37" target="0kDS8UJOp55JMvb85pXF-47" edge="1">
          <mxGeometry relative="1" as="geometry" />
        </mxCell>
        <mxCell id="0kDS8UJOp55JMvb85pXF-37" value="Start / Reset" style="strokeWidth=2;html=1;shape=mxgraph.flowchart.start_1;whiteSpace=wrap;labelBackgroundColor=none;fillColor=#B2C9AB;strokeColor=#788AA3;fontColor=#46495D;" parent="WIyWlLk6GJQsqaUBKTNV-1" vertex="1">
          <mxGeometry x="216" y="100" width="68" height="40" as="geometry" />
        </mxCell>
        <mxCell id="0kDS8UJOp55JMvb85pXF-39" style="edgeStyle=orthogonalEdgeStyle;rounded=0;orthogonalLoop=1;jettySize=auto;html=1;exitX=0.5;exitY=1;exitDx=0;exitDy=0;entryX=0.5;entryY=0;entryDx=0;entryDy=0;labelBackgroundColor=none;strokeColor=#788AA3;fontColor=default;" parent="WIyWlLk6GJQsqaUBKTNV-1" source="0kDS8UJOp55JMvb85pXF-38" target="WIyWlLk6GJQsqaUBKTNV-3" edge="1">
          <mxGeometry relative="1" as="geometry" />
        </mxCell>
        <mxCell id="0kDS8UJOp55JMvb85pXF-44" value="Yes" style="edgeLabel;html=1;align=center;verticalAlign=middle;resizable=0;points=[];labelBackgroundColor=none;fontColor=#46495D;" parent="0kDS8UJOp55JMvb85pXF-39" vertex="1" connectable="0">
          <mxGeometry x="-0.15" y="-3" relative="1" as="geometry">
            <mxPoint x="-17" as="offset" />
          </mxGeometry>
        </mxCell>
        <mxCell id="869ve5IsbD_s2CFl3atE-40" style="edgeStyle=none;curved=1;rounded=0;orthogonalLoop=1;jettySize=auto;html=1;exitX=1;exitY=0.5;exitDx=0;exitDy=0;entryX=1;entryY=0.5;entryDx=0;entryDy=0;strokeColor=#788AA3;fontSize=12;fontColor=default;startSize=8;endSize=8;fillColor=#B2C9AB;labelBackgroundColor=none;" edge="1" parent="WIyWlLk6GJQsqaUBKTNV-1" source="0kDS8UJOp55JMvb85pXF-38" target="0kDS8UJOp55JMvb85pXF-47">
          <mxGeometry relative="1" as="geometry">
            <Array as="points">
              <mxPoint x="360" y="200" />
            </Array>
          </mxGeometry>
        </mxCell>
        <mxCell id="869ve5IsbD_s2CFl3atE-41" value="No" style="edgeLabel;html=1;align=center;verticalAlign=middle;resizable=0;points=[];;fontSize=12;strokeColor=#788AA3;fontColor=#46495D;fillColor=#B2C9AB;labelBackgroundColor=none;" vertex="1" connectable="0" parent="869ve5IsbD_s2CFl3atE-40">
          <mxGeometry x="0.2891" y="16" relative="1" as="geometry">
            <mxPoint as="offset" />
          </mxGeometry>
        </mxCell>
        <mxCell id="0kDS8UJOp55JMvb85pXF-38" value="Execute main task button pressed?" style="rhombus;whiteSpace=wrap;html=1;shadow=0;fontFamily=Helvetica;fontSize=12;align=center;strokeWidth=1;spacing=6;spacingTop=-4;labelBackgroundColor=none;fillColor=#B2C9AB;strokeColor=#788AA3;fontColor=#46495D;" parent="WIyWlLk6GJQsqaUBKTNV-1" vertex="1">
          <mxGeometry x="180" y="230" width="140" height="80" as="geometry" />
        </mxCell>
        <mxCell id="0kDS8UJOp55JMvb85pXF-56" style="edgeStyle=orthogonalEdgeStyle;rounded=0;orthogonalLoop=1;jettySize=auto;html=1;exitX=0.5;exitY=1;exitDx=0;exitDy=0;entryX=0.5;entryY=0;entryDx=0;entryDy=0;labelBackgroundColor=none;strokeColor=#788AA3;fontColor=default;" parent="WIyWlLk6GJQsqaUBKTNV-1" source="0kDS8UJOp55JMvb85pXF-47" target="0kDS8UJOp55JMvb85pXF-38" edge="1">
          <mxGeometry relative="1" as="geometry" />
        </mxCell>
        <mxCell id="0kDS8UJOp55JMvb85pXF-47" value="" style="ellipse;whiteSpace=wrap;html=1;aspect=fixed;labelBackgroundColor=none;fillColor=#B2C9AB;strokeColor=#788AA3;fontColor=#46495D;" parent="WIyWlLk6GJQsqaUBKTNV-1" vertex="1">
          <mxGeometry x="240" y="180" width="20" height="20" as="geometry" />
        </mxCell>
        <mxCell id="869ve5IsbD_s2CFl3atE-6" style="edgeStyle=none;curved=1;rounded=0;orthogonalLoop=1;jettySize=auto;html=1;exitX=0.5;exitY=1;exitDx=0;exitDy=0;entryX=0.5;entryY=0;entryDx=0;entryDy=0;strokeColor=#788AA3;fontSize=12;fontColor=default;startSize=8;endSize=8;fillColor=#B2C9AB;labelBackgroundColor=none;" edge="1" parent="WIyWlLk6GJQsqaUBKTNV-1" source="869ve5IsbD_s2CFl3atE-2" target="869ve5IsbD_s2CFl3atE-5">
          <mxGeometry relative="1" as="geometry" />
        </mxCell>
        <mxCell id="869ve5IsbD_s2CFl3atE-2" value="RobotState::SLEEP" style="rounded=1;whiteSpace=wrap;html=1;fontSize=12;glass=0;strokeWidth=1;shadow=0;labelBackgroundColor=none;fillColor=#B2C9AB;strokeColor=#788AA3;fontColor=#46495D;" vertex="1" parent="WIyWlLk6GJQsqaUBKTNV-1">
          <mxGeometry x="175" y="486" width="150" height="40" as="geometry" />
        </mxCell>
        <mxCell id="869ve5IsbD_s2CFl3atE-15" style="edgeStyle=none;curved=1;rounded=0;orthogonalLoop=1;jettySize=auto;html=1;exitX=0.5;exitY=1;exitDx=0;exitDy=0;entryX=0.5;entryY=0;entryDx=0;entryDy=0;strokeColor=#788AA3;fontSize=12;fontColor=default;startSize=8;endSize=8;fillColor=#B2C9AB;labelBackgroundColor=none;" edge="1" parent="WIyWlLk6GJQsqaUBKTNV-1" source="869ve5IsbD_s2CFl3atE-5" target="869ve5IsbD_s2CFl3atE-14">
          <mxGeometry relative="1" as="geometry" />
        </mxCell>
        <mxCell id="869ve5IsbD_s2CFl3atE-16" value="Yes" style="edgeLabel;html=1;align=center;verticalAlign=middle;resizable=0;points=[];;fontSize=12;strokeColor=#788AA3;fontColor=#46495D;fillColor=#B2C9AB;labelBackgroundColor=none;" vertex="1" connectable="0" parent="869ve5IsbD_s2CFl3atE-15">
          <mxGeometry x="-0.3665" relative="1" as="geometry">
            <mxPoint x="-21" as="offset" />
          </mxGeometry>
        </mxCell>
        <mxCell id="869ve5IsbD_s2CFl3atE-42" style="edgeStyle=none;curved=1;rounded=0;orthogonalLoop=1;jettySize=auto;html=1;exitX=1;exitY=0.5;exitDx=0;exitDy=0;entryX=1;entryY=0.5;entryDx=0;entryDy=0;strokeColor=#788AA3;fontSize=12;fontColor=default;startSize=8;endSize=8;fillColor=#B2C9AB;labelBackgroundColor=none;" edge="1" parent="WIyWlLk6GJQsqaUBKTNV-1" source="869ve5IsbD_s2CFl3atE-5" target="869ve5IsbD_s2CFl3atE-2">
          <mxGeometry relative="1" as="geometry">
            <Array as="points">
              <mxPoint x="360" y="590" />
              <mxPoint x="390" y="550" />
              <mxPoint x="370" y="510" />
            </Array>
          </mxGeometry>
        </mxCell>
        <mxCell id="869ve5IsbD_s2CFl3atE-43" value="No" style="edgeLabel;html=1;align=center;verticalAlign=middle;resizable=0;points=[];;fontSize=12;strokeColor=#788AA3;fontColor=#46495D;fillColor=#B2C9AB;labelBackgroundColor=none;" vertex="1" connectable="0" parent="869ve5IsbD_s2CFl3atE-42">
          <mxGeometry x="0.3966" y="17" relative="1" as="geometry">
            <mxPoint x="-19" y="84" as="offset" />
          </mxGeometry>
        </mxCell>
        <mxCell id="869ve5IsbD_s2CFl3atE-5" value="Mechanical button pressed?" style="rhombus;whiteSpace=wrap;html=1;shadow=0;fontFamily=Helvetica;fontSize=12;align=center;strokeWidth=1;spacing=6;spacingTop=-4;labelBackgroundColor=none;fillColor=#B2C9AB;strokeColor=#788AA3;fontColor=#46495D;" vertex="1" parent="WIyWlLk6GJQsqaUBKTNV-1">
          <mxGeometry x="180.5" y="550" width="140" height="80" as="geometry" />
        </mxCell>
        <mxCell id="869ve5IsbD_s2CFl3atE-18" style="edgeStyle=none;curved=1;rounded=0;orthogonalLoop=1;jettySize=auto;html=1;exitX=0.5;exitY=1;exitDx=0;exitDy=0;entryX=0.5;entryY=0;entryDx=0;entryDy=0;strokeColor=#788AA3;fontSize=12;fontColor=default;startSize=8;endSize=8;fillColor=#B2C9AB;labelBackgroundColor=none;" edge="1" parent="WIyWlLk6GJQsqaUBKTNV-1" source="869ve5IsbD_s2CFl3atE-14" target="869ve5IsbD_s2CFl3atE-17">
          <mxGeometry relative="1" as="geometry" />
        </mxCell>
        <mxCell id="869ve5IsbD_s2CFl3atE-14" value="RobotState::FOWARD" style="rounded=1;whiteSpace=wrap;html=1;fontSize=12;glass=0;strokeWidth=1;shadow=0;labelBackgroundColor=none;fillColor=#B2C9AB;strokeColor=#788AA3;fontColor=#46495D;" vertex="1" parent="WIyWlLk6GJQsqaUBKTNV-1">
          <mxGeometry x="176" y="660" width="150" height="40" as="geometry" />
        </mxCell>
        <mxCell id="869ve5IsbD_s2CFl3atE-21" style="edgeStyle=none;curved=1;rounded=0;orthogonalLoop=1;jettySize=auto;html=1;exitX=0.5;exitY=1;exitDx=0;exitDy=0;entryX=0.5;entryY=0;entryDx=0;entryDy=0;strokeColor=#788AA3;fontSize=12;fontColor=default;startSize=8;endSize=8;fillColor=#B2C9AB;labelBackgroundColor=none;" edge="1" parent="WIyWlLk6GJQsqaUBKTNV-1" source="869ve5IsbD_s2CFl3atE-17" target="869ve5IsbD_s2CFl3atE-20">
          <mxGeometry relative="1" as="geometry" />
        </mxCell>
        <mxCell id="869ve5IsbD_s2CFl3atE-17" value="Set dc motor rotation" style="shape=process;whiteSpace=wrap;html=1;backgroundOutline=1;labelBackgroundColor=none;fillColor=#B2C9AB;strokeColor=#788AA3;fontColor=#46495D;" vertex="1" parent="WIyWlLk6GJQsqaUBKTNV-1">
          <mxGeometry x="190.5" y="730" width="120" height="40" as="geometry" />
        </mxCell>
        <mxCell id="869ve5IsbD_s2CFl3atE-31" style="edgeStyle=none;curved=1;rounded=0;orthogonalLoop=1;jettySize=auto;html=1;exitX=0.5;exitY=1;exitDx=0;exitDy=0;entryX=0.5;entryY=0;entryDx=0;entryDy=0;strokeColor=#788AA3;fontSize=12;fontColor=default;startSize=8;endSize=8;fillColor=#B2C9AB;labelBackgroundColor=none;" edge="1" parent="WIyWlLk6GJQsqaUBKTNV-1" source="869ve5IsbD_s2CFl3atE-20" target="869ve5IsbD_s2CFl3atE-28">
          <mxGeometry relative="1" as="geometry" />
        </mxCell>
        <mxCell id="869ve5IsbD_s2CFl3atE-33" style="edgeStyle=none;curved=1;rounded=0;orthogonalLoop=1;jettySize=auto;html=1;exitX=1;exitY=0.5;exitDx=0;exitDy=0;entryX=0;entryY=0.5;entryDx=0;entryDy=0;strokeColor=#788AA3;fontSize=12;fontColor=default;startSize=8;endSize=8;fillColor=#B2C9AB;labelBackgroundColor=none;" edge="1" parent="WIyWlLk6GJQsqaUBKTNV-1" source="869ve5IsbD_s2CFl3atE-20" target="869ve5IsbD_s2CFl3atE-32">
          <mxGeometry relative="1" as="geometry" />
        </mxCell>
        <mxCell id="869ve5IsbD_s2CFl3atE-20" value="Ultrasonic below limit?" style="rhombus;whiteSpace=wrap;html=1;shadow=0;fontFamily=Helvetica;fontSize=12;align=center;strokeWidth=1;spacing=6;spacingTop=-4;labelBackgroundColor=none;fillColor=#B2C9AB;strokeColor=#788AA3;fontColor=#46495D;" vertex="1" parent="WIyWlLk6GJQsqaUBKTNV-1">
          <mxGeometry x="177.5" y="810" width="145" height="80" as="geometry" />
        </mxCell>
        <mxCell id="869ve5IsbD_s2CFl3atE-37" style="edgeStyle=none;curved=1;rounded=0;orthogonalLoop=1;jettySize=auto;html=1;exitX=0;exitY=0.5;exitDx=0;exitDy=0;entryX=0;entryY=0.5;entryDx=0;entryDy=0;strokeColor=#788AA3;fontSize=12;fontColor=default;startSize=8;endSize=8;fillColor=#B2C9AB;labelBackgroundColor=none;" edge="1" parent="WIyWlLk6GJQsqaUBKTNV-1" source="869ve5IsbD_s2CFl3atE-28" target="869ve5IsbD_s2CFl3atE-17">
          <mxGeometry relative="1" as="geometry">
            <Array as="points">
              <mxPoint x="140" y="950" />
              <mxPoint x="120" y="830" />
              <mxPoint x="150" y="750" />
            </Array>
          </mxGeometry>
        </mxCell>
        <mxCell id="869ve5IsbD_s2CFl3atE-38" value="No" style="edgeLabel;html=1;align=center;verticalAlign=middle;resizable=0;points=[];;fontSize=12;strokeColor=#788AA3;fontColor=#46495D;fillColor=#B2C9AB;labelBackgroundColor=none;" vertex="1" connectable="0" parent="869ve5IsbD_s2CFl3atE-37">
          <mxGeometry x="-0.4199" y="-16" relative="1" as="geometry">
            <mxPoint x="-8" y="57" as="offset" />
          </mxGeometry>
        </mxCell>
        <mxCell id="869ve5IsbD_s2CFl3atE-51" style="edgeStyle=none;curved=1;rounded=0;orthogonalLoop=1;jettySize=auto;html=1;exitX=0.5;exitY=1;exitDx=0;exitDy=0;entryX=0.5;entryY=0;entryDx=0;entryDy=0;strokeColor=#788AA3;fontSize=12;fontColor=default;startSize=8;endSize=8;fillColor=#B2C9AB;labelBackgroundColor=none;" edge="1" parent="WIyWlLk6GJQsqaUBKTNV-1" source="869ve5IsbD_s2CFl3atE-28" target="869ve5IsbD_s2CFl3atE-46">
          <mxGeometry relative="1" as="geometry" />
        </mxCell>
        <mxCell id="869ve5IsbD_s2CFl3atE-52" value="Yes" style="edgeLabel;html=1;align=center;verticalAlign=middle;resizable=0;points=[];;fontSize=12;strokeColor=#788AA3;fontColor=#46495D;fillColor=#B2C9AB;labelBackgroundColor=none;" vertex="1" connectable="0" parent="869ve5IsbD_s2CFl3atE-51">
          <mxGeometry x="-0.0427" relative="1" as="geometry">
            <mxPoint x="20" as="offset" />
          </mxGeometry>
        </mxCell>
        <mxCell id="869ve5IsbD_s2CFl3atE-28" value="Rotations reached?" style="rhombus;whiteSpace=wrap;html=1;shadow=0;fontFamily=Helvetica;fontSize=12;align=center;strokeWidth=1;spacing=6;spacingTop=-4;labelBackgroundColor=none;fillColor=#B2C9AB;strokeColor=#788AA3;fontColor=#46495D;" vertex="1" parent="WIyWlLk6GJQsqaUBKTNV-1">
          <mxGeometry x="177.5" y="920" width="145" height="80" as="geometry" />
        </mxCell>
        <mxCell id="869ve5IsbD_s2CFl3atE-34" style="edgeStyle=none;curved=1;rounded=0;orthogonalLoop=1;jettySize=auto;html=1;exitX=0.5;exitY=0;exitDx=0;exitDy=0;strokeColor=#788AA3;fontSize=12;fontColor=default;startSize=8;endSize=8;fillColor=#B2C9AB;entryX=1;entryY=0.5;entryDx=0;entryDy=0;entryPerimeter=0;labelBackgroundColor=none;" edge="1" parent="WIyWlLk6GJQsqaUBKTNV-1" source="869ve5IsbD_s2CFl3atE-32" target="0kDS8UJOp55JMvb85pXF-37">
          <mxGeometry relative="1" as="geometry">
            <mxPoint x="570" y="850.3333333333335" as="targetPoint" />
            <Array as="points">
              <mxPoint x="500" y="430" />
              <mxPoint x="400" y="110" />
            </Array>
          </mxGeometry>
        </mxCell>
        <mxCell id="869ve5IsbD_s2CFl3atE-32" value="RobotState::EMERGENCY" style="rounded=1;whiteSpace=wrap;html=1;fontSize=12;glass=0;strokeWidth=1;shadow=0;labelBackgroundColor=none;fillColor=#B2C9AB;strokeColor=#788AA3;fontColor=#46495D;" vertex="1" parent="WIyWlLk6GJQsqaUBKTNV-1">
          <mxGeometry x="360" y="830" width="150" height="40" as="geometry" />
        </mxCell>
        <mxCell id="869ve5IsbD_s2CFl3atE-45" style="edgeStyle=none;curved=1;rounded=0;orthogonalLoop=1;jettySize=auto;html=1;exitX=0.5;exitY=1;exitDx=0;exitDy=0;strokeColor=#788AA3;fontSize=12;fontColor=default;startSize=8;endSize=8;fillColor=#B2C9AB;labelBackgroundColor=none;" edge="1" parent="WIyWlLk6GJQsqaUBKTNV-1" source="869ve5IsbD_s2CFl3atE-35" target="869ve5IsbD_s2CFl3atE-44">
          <mxGeometry relative="1" as="geometry" />
        </mxCell>
        <mxCell id="869ve5IsbD_s2CFl3atE-35" value="Set initial dc motor rotation" style="shape=process;whiteSpace=wrap;html=1;backgroundOutline=1;labelBackgroundColor=none;fillColor=#B2C9AB;strokeColor=#788AA3;fontColor=#46495D;" vertex="1" parent="WIyWlLk6GJQsqaUBKTNV-1">
          <mxGeometry x="190" y="1110" width="120" height="40" as="geometry" />
        </mxCell>
        <mxCell id="869ve5IsbD_s2CFl3atE-49" style="edgeStyle=none;curved=1;rounded=0;orthogonalLoop=1;jettySize=auto;html=1;exitX=1;exitY=0.5;exitDx=0;exitDy=0;entryX=1;entryY=0.5;entryDx=0;entryDy=0;strokeColor=#788AA3;fontSize=12;fontColor=default;startSize=8;endSize=8;fillColor=#B2C9AB;labelBackgroundColor=none;" edge="1" parent="WIyWlLk6GJQsqaUBKTNV-1" source="869ve5IsbD_s2CFl3atE-44" target="869ve5IsbD_s2CFl3atE-35">
          <mxGeometry relative="1" as="geometry">
            <Array as="points">
              <mxPoint x="351" y="1210" />
              <mxPoint x="371" y="1170" />
              <mxPoint x="351" y="1130" />
            </Array>
          </mxGeometry>
        </mxCell>
        <mxCell id="869ve5IsbD_s2CFl3atE-50" value="No" style="edgeLabel;html=1;align=center;verticalAlign=middle;resizable=0;points=[];;fontSize=12;strokeColor=#788AA3;fontColor=#46495D;fillColor=#B2C9AB;labelBackgroundColor=none;" vertex="1" connectable="0" parent="869ve5IsbD_s2CFl3atE-49">
          <mxGeometry x="-0.153" y="11" relative="1" as="geometry">
            <mxPoint x="-8" y="58" as="offset" />
          </mxGeometry>
        </mxCell>
        <mxCell id="869ve5IsbD_s2CFl3atE-54" style="edgeStyle=none;curved=1;rounded=0;orthogonalLoop=1;jettySize=auto;html=1;exitX=0.5;exitY=1;exitDx=0;exitDy=0;entryX=0;entryY=0.5;entryDx=0;entryDy=0;strokeColor=#788AA3;fontSize=12;fontColor=default;startSize=8;endSize=8;fillColor=#B2C9AB;labelBackgroundColor=none;" edge="1" parent="WIyWlLk6GJQsqaUBKTNV-1" source="869ve5IsbD_s2CFl3atE-44" target="WIyWlLk6GJQsqaUBKTNV-3">
          <mxGeometry relative="1" as="geometry">
            <Array as="points">
              <mxPoint x="230" y="1300" />
              <mxPoint x="140" y="1270" />
              <mxPoint x="70" y="970" />
              <mxPoint x="60" y="590" />
              <mxPoint x="130" y="360" />
            </Array>
          </mxGeometry>
        </mxCell>
        <mxCell id="869ve5IsbD_s2CFl3atE-55" value="Yes" style="edgeLabel;html=1;align=center;verticalAlign=middle;resizable=0;points=[];;fontSize=12;strokeColor=#788AA3;fontColor=#46495D;fillColor=#B2C9AB;labelBackgroundColor=none;" vertex="1" connectable="0" parent="869ve5IsbD_s2CFl3atE-54">
          <mxGeometry x="0.2075" y="-105" relative="1" as="geometry">
            <mxPoint x="71" y="562" as="offset" />
          </mxGeometry>
        </mxCell>
        <mxCell id="869ve5IsbD_s2CFl3atE-44" value="Rotations reached?" style="rhombus;whiteSpace=wrap;html=1;shadow=0;fontFamily=Helvetica;fontSize=12;align=center;strokeWidth=1;spacing=6;spacingTop=-4;labelBackgroundColor=none;fillColor=#B2C9AB;strokeColor=#788AA3;fontColor=#46495D;" vertex="1" parent="WIyWlLk6GJQsqaUBKTNV-1">
          <mxGeometry x="176" y="1180" width="145" height="80" as="geometry" />
        </mxCell>
        <mxCell id="869ve5IsbD_s2CFl3atE-48" style="edgeStyle=none;curved=1;rounded=0;orthogonalLoop=1;jettySize=auto;html=1;exitX=0.5;exitY=1;exitDx=0;exitDy=0;entryX=0.5;entryY=0;entryDx=0;entryDy=0;strokeColor=#788AA3;fontSize=12;fontColor=default;startSize=8;endSize=8;fillColor=#B2C9AB;labelBackgroundColor=none;" edge="1" parent="WIyWlLk6GJQsqaUBKTNV-1" source="869ve5IsbD_s2CFl3atE-46" target="869ve5IsbD_s2CFl3atE-35">
          <mxGeometry relative="1" as="geometry" />
        </mxCell>
        <mxCell id="869ve5IsbD_s2CFl3atE-46" value="RobotState::BACKWARD" style="rounded=1;whiteSpace=wrap;html=1;fontSize=12;glass=0;strokeWidth=1;shadow=0;labelBackgroundColor=none;fillColor=#B2C9AB;strokeColor=#788AA3;fontColor=#46495D;" vertex="1" parent="WIyWlLk6GJQsqaUBKTNV-1">
          <mxGeometry x="175" y="1039" width="150" height="40" as="geometry" />
        </mxCell>
      </root>
    </mxGraphModel>
  </diagram>
</mxfile>
